<svg width="716" height="714" viewBox="0 0 716 714" fill="none" xmlns="http://www.w3.org/2000/svg">
<rect width="716" height="714" fill="#0C1C29"/>
<path fill-rule="evenodd" clip-rule="evenodd" d="M232.314 60.0695C227.592 77.1575 222.856 94.2684 221.788 98.0932C220.721 101.918 218.872 108.581 217.679 112.899C216.485 117.217 214.64 123.88 213.578 127.705C208.955 144.357 206.536 153.102 190.8 210.033C181.661 243.099 173.34 273.167 172.309 276.85C171.279 280.533 170.16 284.571 169.824 285.823C169.487 287.075 165.411 301.828 160.766 318.608C152.818 347.314 150.896 354.248 146.155 371.325C145.093 375.15 143.248 381.813 142.055 386.131C140.861 390.449 139.016 397.112 137.954 400.937C136.893 404.762 135.059 411.424 133.88 415.742C132.701 420.061 131.635 423.947 131.512 424.379C131.299 425.124 134.121 425.164 186.214 425.164H241.14V227.082C241.14 118.137 241.086 29 241.019 29C240.953 29 237.035 42.9815 232.314 60.0695ZM585.603 103.144C584.756 105.918 583.494 110.005 582.798 112.226C581.218 117.266 578.781 125.134 576.893 131.294C576.098 133.885 574.758 138.226 573.916 140.94C571.912 147.391 558.311 191.5 555.654 200.163C554.519 203.864 553.108 208.407 552.518 210.258C551.929 212.108 550.799 215.742 550.008 218.333C549.217 220.924 547.88 225.265 547.038 227.979C544.802 235.185 528.005 289.637 525.587 297.521C524.452 301.223 523.041 305.765 522.451 307.616C521.862 309.467 520.732 313.101 519.941 315.692C519.15 318.283 517.814 322.624 516.972 325.338C514.413 333.592 499.614 381.521 497.924 387.028C496.342 392.185 493.827 400.315 489.111 415.518C487.733 419.96 486.498 423.947 486.367 424.379C486.141 425.123 488.752 425.164 536.75 425.164H587.371V261.629C587.371 171.684 587.319 98.0946 587.257 98.0968C587.194 98.0986 586.45 100.37 585.603 103.144ZM114.192 130.621C113.65 132.101 111.551 137.907 109.526 143.521C107.502 149.136 104.188 158.322 102.161 163.935C100.134 169.548 96.8359 178.683 94.8314 184.235C92.8269 189.788 89.5815 198.772 87.6193 204.201C85.6572 209.629 77.2543 232.948 68.9461 256.021C60.6384 279.093 53.4264 299.08 52.9198 300.438C52.4132 301.795 50.77 306.337 49.268 310.532C47.766 314.727 44.8959 322.702 42.8909 328.254C40.8855 333.806 38.1544 341.378 36.8224 345.079C29.6572 364.985 26.8605 372.734 25.8915 375.363C25.3002 376.967 23.6906 381.409 22.3148 385.234C17.7769 397.846 12.4135 412.73 10.1895 418.883L8 424.94L61.5482 425.054C90.9996 425.117 115.166 425.1 115.251 425.016C115.336 424.932 115.354 358.054 115.29 276.396L115.176 127.929L114.192 130.621ZM352.824 168.451C348.585 179.919 326.683 238.956 322.918 249.066C321.258 253.526 312.608 276.848 302.117 305.148C298.367 315.266 294.909 324.553 294.433 325.787C293.958 327.021 290.469 336.409 286.682 346.649C279.63 365.718 271.273 388.252 262.558 411.705L257.639 424.94L306.41 425.054C333.233 425.117 355.249 425.1 355.334 425.016C355.419 424.932 355.437 365.689 355.374 293.364L355.26 161.864L352.824 168.451ZM422.228 471.825C448.285 497.488 469.657 518.485 469.72 518.485C469.783 518.485 469.835 497.488 469.835 471.825V425.164H422.343H374.851L422.228 471.825ZM603.948 425.869C604.42 427.08 701.288 659.841 702.895 663.626L704.419 667.215L704.435 546.19L704.451 425.164H654.062C608.457 425.164 603.699 425.231 603.948 425.869Z" fill="#A0D00C"/>
</svg>
