<svg width="1440" height="897" viewBox="0 0 1440 897" fill="none" xmlns="http://www.w3.org/2000/svg">
<rect width="1440" height="897" fill="#CEC240"/>
<path d="M0 275.256V550.512H412.3H824.513L825.385 547.17C826.867 541.366 833.927 505.574 842.034 462.131C870.276 311.576 885.356 246.059 898.082 218.886C906.886 200.242 917.433 200.506 922.925 219.501C932.339 252.039 941.492 341.212 954.044 525.009C954.741 535.386 955.7 548.489 956.223 554.029C956.659 559.57 957.269 568.1 957.53 572.937C957.792 577.774 958.402 586.304 958.838 591.844C959.361 597.384 960.494 613.038 961.453 626.581C965.462 682.511 970.867 738.53 974.005 755.854C975.748 765.792 975.835 765.352 980.194 698.693C985.86 613.829 990.479 582.874 1001.11 560.537C1008.09 545.851 1022.99 537.936 1048.45 535.474C1065.7 533.715 1089.76 536.617 1134.92 545.851L1155.4 550.072L1297.74 550.248L1440 550.512V275.256V-4.49269e-06H720H0V275.256Z" fill="#0B2A2E"/>
<path d="M909.763 215.28C905.492 220.029 896.513 245.972 889.714 273.057C880.823 308.322 867.4 372.343 854.673 440.673C837.763 531.253 832.446 557.283 830.615 558.514C829.918 558.954 653.317 559.306 414.741 559.306H0V728.153V897H720H1440V728.153V559.306H1301.23C1144.94 559.306 1161.68 560.009 1124.11 552.271C1095.08 546.379 1076.6 544.004 1059.08 544.004C1043.39 543.916 1037.46 544.708 1028.66 547.961C1012.1 554.029 1006.52 562.56 1000.24 590.613C994.925 614.709 992.397 639.772 987.08 721.118C984.116 767.463 983.157 774.85 979.671 778.367C975.748 782.325 971.303 778.983 968.426 769.837C963.632 754.008 958.402 703.969 951.429 605.915C949.772 582.434 947.768 555.173 947.07 545.235C946.286 535.298 944.542 510.762 943.148 490.712C931.119 321.513 921.792 235.858 913.249 217.391C912.378 215.368 911.506 213.697 911.332 213.697C911.245 213.697 910.547 214.401 909.763 215.28Z" fill="#0B2A2E"/>
</svg>
