<svg width="375" height="173" viewBox="0 0 375 173" fill="none" xmlns="http://www.w3.org/2000/svg">
<g clip-path="url(#clip0_121_1303)">
<rect width="375" height="173" fill="#CEC240"/>
<path d="M0 28.6813V100.363H107.37H214.717L214.944 99.4923C215.33 97.9808 217.169 88.66 219.28 77.3467C226.634 38.1396 230.561 21.0781 233.876 14.0016C236.168 9.14649 238.915 9.21519 240.345 14.1619C242.797 22.6354 245.18 45.8573 248.449 93.7212C248.63 96.4235 248.88 99.8358 249.016 101.279C249.13 102.721 249.289 104.943 249.357 106.202C249.425 107.462 249.584 109.683 249.697 111.126C249.834 112.569 250.129 116.645 250.378 120.172C251.423 134.737 252.83 149.326 253.647 153.837C254.101 156.425 254.124 156.311 255.259 138.951C256.734 116.852 257.937 108.79 260.707 102.973C262.523 99.1488 266.404 97.0877 273.033 96.4464C277.527 95.9884 283.792 96.7441 295.551 99.1488L300.885 100.248L337.954 100.294L375 100.363V28.6813V-42.9999H187.5H0V28.6813Z" fill="#0B2A2E"/>
<path d="M236.917 13.0625C235.805 14.2992 233.467 21.0551 231.696 28.1087C229.381 37.2921 225.885 53.9643 222.571 71.7587C218.167 95.347 216.783 102.126 216.306 102.446C216.124 102.561 170.135 102.653 108.005 102.653H0V146.623V190.594H187.5H375V146.623V102.653H338.862C298.161 102.653 302.52 102.836 292.736 100.82C285.177 99.2861 280.365 98.6677 275.802 98.6677C271.716 98.6448 270.173 98.8509 267.88 99.6983C263.567 101.278 262.114 103.5 260.48 110.805C259.095 117.08 258.437 123.607 257.052 144.791C256.28 156.86 256.031 158.784 255.123 159.7C254.101 160.73 252.943 159.86 252.194 157.478C250.946 153.356 249.584 140.325 247.768 114.79C247.337 108.676 246.814 101.576 246.633 98.9884C246.429 96.4005 245.975 90.011 245.611 84.7895C242.479 40.7273 240.05 18.4214 237.825 13.6121C237.598 13.0854 237.371 12.6503 237.326 12.6503C237.303 12.6503 237.122 12.8335 236.917 13.0625Z" fill="#0B2A2E"/>
</g>
<defs>
<clipPath id="clip0_121_1303">
<rect width="375" height="173" fill="white"/>
</clipPath>
</defs>
</svg>
