<svg width="768" height="897" viewBox="0 0 768 897" fill="none" xmlns="http://www.w3.org/2000/svg">
<g clip-path="url(#clip0_121_1296)">
<rect width="768" height="897" fill="#CEC240"/>
<path d="M0 343.204V495.408H227.983H455.918L456.4 493.56C457.22 490.35 461.124 470.559 465.606 446.537C481.223 363.287 489.561 327.059 496.599 312.033C501.467 301.724 507.299 301.87 510.335 312.374C515.541 330.366 520.602 379.674 527.543 481.306C527.928 487.044 528.458 494.289 528.748 497.353C528.989 500.416 529.326 505.133 529.471 507.808C529.615 510.482 529.953 515.199 530.194 518.262C530.483 521.326 531.109 529.982 531.64 537.47C533.857 568.397 536.845 599.373 538.58 608.953C539.544 614.448 539.592 614.204 542.002 577.345C545.135 530.419 547.69 513.302 553.57 500.951C557.426 492.83 565.668 488.454 579.743 487.092C589.286 486.12 602.589 487.724 627.556 492.83L638.883 495.164L717.593 495.262L796.254 495.408V343.204V191H398.127H0V343.204Z" fill="#0B2A2E"/>
<path d="M503.057 310.04C500.696 312.666 495.731 327.011 491.971 341.988C487.055 361.488 479.632 396.889 472.595 434.672C463.245 484.758 460.304 499.152 459.292 499.833C458.907 500.076 361.255 500.271 229.333 500.271H0V593.635V687H398.127H796.254V593.635V500.271H719.521C633.099 500.271 642.354 500.66 621.58 496.38C605.529 493.122 595.311 491.809 585.623 491.809C576.947 491.761 573.669 492.198 568.801 493.998C559.643 497.353 556.559 502.07 553.088 517.582C550.148 530.906 548.75 544.765 545.81 589.745C544.171 615.372 543.641 619.456 541.713 621.402C539.544 623.59 537.086 621.742 535.496 616.685C532.845 607.932 529.953 580.263 526.097 526.043C525.181 513.06 524.072 497.985 523.687 492.49C523.253 486.995 522.289 473.428 521.518 462.341C514.866 368.782 509.709 321.419 504.985 311.207C504.503 310.089 504.021 309.165 503.925 309.165C503.877 309.165 503.491 309.554 503.057 310.04Z" fill="#0B2A2E"/>
<rect width="768" height="243" fill="#0B2A2E"/>
<rect y="654" width="768" height="243" fill="#0B2A2E"/>
</g>
<defs>
<clipPath id="clip0_121_1296">
<rect width="768" height="897" fill="white"/>
</clipPath>
</defs>
</svg>
