<svg width="120" height="42" viewBox="0 0 120 42" fill="none" xmlns="http://www.w3.org/2000/svg">
<g clip-path="url(#clip0_112_2)">
<path d="M3.40788 0.439087L116.762 0.640446C118.346 0.640446 119.761 0.405602 119.761 3.80056L119.622 41.1305H0.547363V3.66228C0.547363 1.98784 0.709437 0.439087 3.40788 0.439087Z" fill="#AAB2AB"/>
<path d="M34.5222 19.538C34.5271 27.0674 28.4256 33.1751 20.8956 33.18C13.3656 33.1843 7.25682 27.0839 7.25244 19.5545C7.25244 19.5487 7.25244 19.5438 7.25244 19.538C7.24807 12.0082 13.3491 5.90048 20.8791 5.89612C28.4101 5.89175 34.5178 11.9922 34.5222 19.5215C34.5222 19.5269 34.5222 19.5322 34.5222 19.538Z" fill="white"/>
<path d="M31.9713 8.43326C34.9949 11.4565 36.5069 15.1586 36.5069 19.538C36.5069 23.918 35.021 27.5807 32.0494 30.5264C28.8958 33.6283 25.1687 35.179 20.8679 35.179C16.6191 35.179 12.9565 33.6414 9.88102 30.5647C6.80506 27.4895 5.26733 23.8137 5.26733 19.538C5.26733 15.2629 6.80506 11.5613 9.88102 8.43326C12.8784 5.4085 16.541 3.89709 20.8679 3.89709C25.2472 3.89709 28.9477 5.4085 31.9713 8.43326ZM11.9166 10.4667C9.36033 13.0485 8.08271 16.0732 8.08271 19.5419C8.08271 23.0102 9.34773 26.0087 11.8773 28.5381C14.4074 31.0674 17.4193 32.3323 20.914 32.3323C24.4088 32.3323 27.4464 31.0553 30.0284 28.4993C32.4798 26.1261 33.706 23.1412 33.706 19.5419C33.706 15.9699 32.4599 12.9383 29.9692 10.4478C27.4789 7.95775 24.4607 6.71224 20.914 6.71224C17.3674 6.71224 14.3676 7.96404 11.9166 10.4667ZM18.6436 18.0165C18.2529 17.1645 17.6682 16.7389 16.8884 16.7389C15.5099 16.7389 14.8208 17.6671 14.8208 19.5221C14.8208 21.3779 15.5099 22.3057 16.8884 22.3057C17.7987 22.3057 18.449 21.8539 18.8391 20.9485L20.75 21.966C19.8392 23.5842 18.4728 24.3935 16.6507 24.3935C15.2454 24.3935 14.1196 23.9626 13.2743 23.1014C12.4276 22.2397 12.0054 21.0519 12.0054 19.538C12.0054 18.0504 12.4412 16.869 13.3132 15.9946C14.1852 15.1198 15.2711 14.6827 16.573 14.6827C18.499 14.6827 19.878 15.441 20.7117 16.9573L18.6436 18.0165ZM27.6337 18.0165C27.2426 17.1645 26.6695 16.7389 25.914 16.7389C24.5077 16.7389 23.8042 17.6671 23.8042 19.5221C23.8042 21.3779 24.5077 22.3057 25.914 22.3057C26.8258 22.3057 27.4644 21.8539 27.8287 20.9485L29.7824 21.966C28.873 23.5842 27.5085 24.3935 25.6898 24.3935C24.2865 24.3935 23.1631 23.9626 22.3183 23.1014C21.475 22.2397 21.0523 21.0519 21.0523 19.538C21.0523 18.0504 21.4813 16.869 22.3387 15.9946C23.1956 15.1198 24.2865 14.6827 25.6122 14.6827C27.5347 14.6827 28.9118 15.441 29.7426 16.9573L27.6337 18.0165Z" fill="black"/>
<path d="M117.753 0H2.24715C1.00832 0 0 1.00728 0 2.246V41.493C0 41.7729 0.227563 42 0.507551 42H119.492C119.772 42 120 41.7729 120 41.493V2.246C120 1.00728 118.992 0 117.753 0ZM2.24715 1.01407H117.753C118.433 1.01407 118.985 1.56671 118.985 2.246C118.985 2.246 118.985 18.0311 118.985 29.4546H36.4278C33.4018 34.9258 27.5721 38.64 20.8815 38.64C14.1881 38.64 8.35977 34.9287 5.33525 29.4546H1.01512C1.01512 18.0311 1.01512 2.246 1.01512 2.246C1.01512 1.56672 1.56781 1.01407 2.24715 1.01407Z" fill="black"/>
<path d="M59.9966 32.7472C60.3125 32.7472 60.6002 32.7753 60.8603 32.8306C61.1204 32.886 61.3436 32.9772 61.5299 33.1043C61.7153 33.2304 61.8599 33.3993 61.9618 33.6089C62.0637 33.8195 62.1151 34.0786 62.1151 34.3881C62.1151 34.722 62.0394 34.9995 61.8871 35.2217C61.7357 35.4449 61.5105 35.6264 61.2136 35.769C61.6231 35.8864 61.9288 36.0922 62.1307 36.3862C62.3325 36.6802 62.4335 37.0344 62.4335 37.4488C62.4335 37.7826 62.3685 38.0718 62.2384 38.3164C62.1084 38.5599 61.9327 38.7598 61.7134 38.9141C61.4931 39.0694 61.2417 39.1839 60.9603 39.2576C60.6779 39.3324 60.3886 39.3692 60.0907 39.3692H56.8745V32.7472H59.9966V32.7472ZM59.8107 35.4255C60.0703 35.4255 60.2843 35.3634 60.4517 35.2402C60.6186 35.1169 60.7021 34.917 60.7021 34.6395C60.7021 34.4852 60.674 34.3581 60.6186 34.2601C60.5624 34.1611 60.4886 34.0844 60.3954 34.0281C60.3028 33.9728 60.196 33.934 60.0752 33.9127C59.9543 33.8913 59.8292 33.8806 59.6991 33.8806H58.3341V35.4255H59.8107ZM59.8956 38.2358C60.0383 38.2358 60.1742 38.2222 60.3047 38.1941C60.4342 38.1659 60.5497 38.1194 60.6487 38.0553C60.7477 37.9903 60.8263 37.902 60.8855 37.7904C60.9447 37.6798 60.9738 37.5371 60.9738 37.3644C60.9738 37.0247 60.8778 36.7821 60.6856 36.6366C60.4934 36.492 60.2397 36.4192 59.9238 36.4192H58.3341V38.2358H59.8956Z" fill="white"/>
<path d="M62.6907 32.7472H64.324L65.8748 35.3624L67.416 32.7472H69.0396L66.5814 36.8277V39.3692H65.1217V36.7909L62.6907 32.7472Z" fill="white"/>
<path d="M86.4336 32.7473L89.2004 37.1898H89.216V32.7473H90.5824V39.3693H89.1257L86.3695 34.9356H86.3511V39.3693H84.9846V32.7473H86.4336Z" fill="white"/>
<path d="M96.1112 34.5114C96.0249 34.3717 95.9162 34.2494 95.7861 34.1446C95.6561 34.0398 95.5095 33.9573 95.3455 33.8991C95.1815 33.8399 95.0097 33.8108 94.8312 33.8108C94.5031 33.8108 94.2246 33.8739 93.9956 34.001C93.7665 34.1272 93.5812 34.297 93.4395 34.5105C93.2968 34.724 93.193 34.9666 93.128 35.2383C93.0629 35.51 93.0309 35.7914 93.0309 36.0816C93.0309 36.3601 93.0629 36.6308 93.128 36.8928C93.193 37.1558 93.2968 37.3926 93.4395 37.6022C93.5812 37.8128 93.7665 37.9806 93.9956 38.1078C94.2246 38.2349 94.5031 38.298 94.8312 38.298C95.2757 38.298 95.6241 38.1621 95.8744 37.8894C96.1248 37.6177 96.2781 37.2587 96.3334 36.8133H97.7436C97.7067 37.2276 97.6106 37.6022 97.4563 37.936C97.302 38.2708 97.0973 38.5551 96.844 38.7909C96.5907 39.0267 96.2937 39.2063 95.953 39.3305C95.6134 39.4547 95.2388 39.5168 94.8312 39.5168C94.3236 39.5168 93.8675 39.4285 93.4618 39.2519C93.0571 39.0762 92.7145 38.8327 92.436 38.5241C92.1565 38.2145 91.943 37.8506 91.7945 37.4333C91.646 37.0151 91.5713 36.5658 91.5713 36.0825C91.5713 35.5876 91.646 35.1286 91.7945 34.7046C91.943 34.2805 92.1565 33.9108 92.436 33.5954C92.7145 33.28 93.0571 33.0326 93.4618 32.853C93.8675 32.6735 94.3236 32.5842 94.8312 32.5842C95.1961 32.5842 95.5406 32.6366 95.8657 32.7424C96.1898 32.8472 96.481 33.0005 96.7372 33.2024C96.9944 33.4033 97.2059 33.6526 97.3729 33.9496C97.5398 34.2465 97.6446 34.5871 97.6883 34.9704H96.2782C96.2539 34.8035 96.1976 34.6502 96.1112 34.5114Z" fill="white"/>
<path d="M101.718 14.9807C101.722 20.4814 97.2662 24.9428 91.7645 24.9472C86.2638 24.9506 81.8015 20.495 81.7976 14.9952C81.7976 14.9894 81.7976 14.985 81.7976 14.9807C81.7937 9.47945 86.2493 5.01802 91.75 5.01367C97.2517 5.01027 101.714 9.46589 101.718 14.9656C101.718 14.9705 101.718 14.9758 101.718 14.9807Z" fill="white"/>
<path d="M91.7432 3.38525C94.9934 3.38525 97.7418 4.50606 99.9865 6.74722C102.231 8.98933 103.354 11.7341 103.354 14.9806C103.354 18.2271 102.251 20.9423 100.045 23.1266C97.703 25.4265 94.9361 26.5755 91.7432 26.5755C88.5882 26.5755 85.8698 25.4352 83.5862 23.1548C81.3027 20.8753 80.1614 18.1499 80.1614 14.9806C80.1614 11.8108 81.3027 9.06601 83.5862 6.74722C85.8116 4.50606 88.5309 3.38525 91.7432 3.38525ZM82.7701 11.8651C82.4246 12.8438 82.2518 13.8821 82.2518 14.9806C82.2518 17.5507 83.1893 19.7725 85.0662 21.6477C86.9432 23.5216 89.1782 24.4595 91.7723 24.4595C94.3655 24.4595 96.6189 23.5129 98.5347 21.6181C99.1762 20.999 99.7051 20.3227 100.119 19.59L95.7474 17.6439C95.4514 19.1145 94.1413 20.1077 92.5565 20.2242V22.0122H91.225V20.2242C89.9235 20.2096 88.6658 19.6774 87.705 18.836L89.3014 17.2257C90.071 17.9495 90.8406 18.2746 91.8907 18.2746C92.571 18.2746 93.3251 18.0083 93.3251 17.1218C93.3251 16.8079 93.2028 16.5895 93.0116 16.4255L91.9063 15.9326L90.5291 15.3203C89.8488 15.0165 89.2723 14.7608 88.693 14.5027L82.7701 11.8651ZM91.7723 5.47211C89.1403 5.47211 86.915 6.39935 85.0963 8.25522C84.6004 8.75501 84.1705 9.27705 83.8036 9.82146L88.2378 11.7953C88.6377 10.5653 89.8061 9.81903 91.225 9.73657V7.94859H92.5565V9.73657C93.4736 9.78071 94.479 10.032 95.4699 10.7996L93.9462 12.3659C93.3843 11.9675 92.6749 11.6866 91.9645 11.6866C91.388 11.6866 90.5747 11.8632 90.5747 12.5866C90.5747 12.6977 90.6106 12.7948 90.6786 12.8811L92.1615 13.541L93.1649 13.9884C93.8064 14.2751 94.4198 14.5468 95.0273 14.8176L100.969 17.4624C101.166 16.6846 101.264 15.8569 101.264 14.9806C101.264 12.3319 100.335 10.0912 98.4774 8.25521C96.6384 6.39935 94.4033 5.47211 91.7723 5.47211Z" fill="black"/>
<path d="M63.3596 25.9551C69.2906 25.9551 74.0988 21.1474 74.0988 15.2169C74.0988 9.28631 69.2906 4.47864 63.3596 4.47864C57.4285 4.47864 52.6204 9.28631 52.6204 15.2169C52.6204 21.1474 57.4285 25.9551 63.3596 25.9551Z" fill="white"/>
<path d="M66.4678 12.1101C66.4678 11.6962 66.132 11.361 65.7186 11.361H60.9758C60.5624 11.361 60.2266 11.6962 60.2266 12.1101V16.853H61.5493V22.4692H65.144V16.853H66.4678V12.1101H66.4678Z" fill="black"/>
<path d="M63.3473 10.7365C64.2432 10.7365 64.9694 10.0103 64.9694 9.11446C64.9694 8.21864 64.2432 7.49243 63.3473 7.49243C62.4514 7.49243 61.7251 8.21864 61.7251 9.11446C61.7251 10.0103 62.4514 10.7365 63.3473 10.7365Z" fill="black"/>
<path fill-rule="evenodd" clip-rule="evenodd" d="M63.3321 3.38574C60.1207 3.38574 57.4009 4.50607 55.1756 6.74819C52.892 9.06697 51.7507 11.8117 51.7507 14.9806C51.7507 18.1495 52.892 20.8748 55.1756 23.1553C57.4591 25.4352 60.1785 26.5755 63.3321 26.5755C66.525 26.5755 69.2928 25.4265 71.6336 23.1262C73.8405 20.9428 74.943 18.2276 74.943 14.9806C74.943 11.7336 73.8211 8.98981 71.5764 6.74817C69.3316 4.50606 66.5832 3.38574 63.3321 3.38574ZM63.3612 5.47211C65.9931 5.47211 68.2282 6.4003 70.0663 8.25522C71.9248 10.0912 72.8535 12.3329 72.8535 14.9806C72.8535 17.6473 71.9442 19.8603 70.1245 21.6186C68.2088 23.5129 65.9543 24.4595 63.3612 24.4595C60.768 24.4595 58.533 23.5221 56.6566 21.6478C54.7787 19.773 53.8407 17.5507 53.8407 14.9806C53.8407 12.41 54.7889 10.1684 56.6852 8.25522C58.5044 6.40029 60.7302 5.47211 63.3612 5.47211Z" fill="black"/>
</g>
<defs>
<clipPath id="clip0_112_2">
<rect width="120" height="42" fill="white"/>
</clipPath>
</defs>
</svg>
